<svg xmlns="http://www.w3.org/2000/svg" xmlns:svg="http://www.w3.org/2000/svg" id="svg8" width="50.48" height="27" version="1.1" viewBox="0 0 13.356 7.144"><metadata id="metadata5"/><g id="layer1" transform="translate(-24.441005,-113.52518)"><g id="text868" fill="#000" fill-opacity="1" stroke="none" stroke-width=".265" aria-label="B3" font-family="sans-serif" font-size="10.583" font-style="normal" font-weight="normal" letter-spacing="0" word-spacing="0" style="line-height:1.25"><path id="path814" stroke-width=".265" d="m 28.176921,113.52518 q 0.635,0 1.0795,0.14817 0.455084,0.13758 0.740834,0.40216 0.296333,0.254 0.433916,0.61384 0.137584,0.35983 0.137584,0.79375 0,0.62441 -0.264584,1.00541 -0.254,0.381 -0.762,0.58209 0.508,0.21166 0.783167,0.61383 0.275167,0.39158 0.275167,1.016 0,0.43392 -0.137584,0.79375 -0.137583,0.35983 -0.433916,0.62442 -0.28575,0.254 -0.740834,0.40216 -0.4445,0.14817 -1.0795,0.14817 h -3.174999 q -0.592667,0 -0.592667,-0.58208 v -5.97959 q 0,-0.58208 0.592667,-0.58208 z m -2.508249,5.78908 q 0,0.11642 0.137583,0.11642 h 2.434166 q 0.5715,0 0.836084,-0.24342 0.264583,-0.24341 0.264583,-0.68791 0,-0.92075 -1.100667,-0.92075 h -2.571749 z m 0,-2.77283 h 2.539999 q 1.100667,0 1.100667,-0.85725 0,-0.42333 -0.264583,-0.67733 -0.254,-0.254 -0.8255,-0.254 h -2.413 q -0.137583,0 -0.137583,0.127 z" font-family="Nasalization" font-stretch="normal" font-style="normal" font-variant="normal" font-weight="normal" style="-inkscape-font-specification:Nasalization"/><path id="path816" stroke-width=".265" d="m 35.38417,113.52518 q 0.635,0 1.0795,0.14817 0.455083,0.13758 0.740833,0.40216 0.296333,0.254 0.433917,0.60325 0.137583,0.34925 0.137583,0.762 0,0.635 -0.264583,1.03717 -0.254,0.39158 -0.751417,0.60325 0.508,0.21167 0.772583,0.62442 0.264584,0.40216 0.264584,1.04775 0,0.40216 -0.137584,0.75141 -0.137583,0.34925 -0.423333,0.61384 -0.28575,0.254 -0.740833,0.40216 -0.4445,0.14817 -1.0795,0.14817 h -3.608917 v -1.24883 h 3.608917 q 0.550333,0 0.814917,-0.23284 0.264583,-0.24341 0.264583,-0.67733 0,-0.85725 -1.090083,-0.85725 h -2.201334 v -1.13242 h 2.169584 q 0.550333,0 0.814916,-0.20108 0.275167,-0.21167 0.275167,-0.65617 0,-0.40216 -0.254,-0.64558 -0.254,-0.24342 -0.8255,-0.24342 h -3.566583 v -1.24883 z" font-family="Nasalization" font-stretch="normal" font-style="normal" font-variant="normal" font-weight="normal" style="-inkscape-font-specification:Nasalization"/></g></g></svg>