<svg xmlns="http://www.w3.org/2000/svg" xmlns:svg="http://www.w3.org/2000/svg" id="svg8" width="162.76" height="27.48" version="1.1" viewBox="0 0 43.064 7.271"><metadata id="metadata5"/><g id="layer1" transform="translate(-24.441005,-113.39818)"><g id="text868" fill="#000" fill-opacity="1" stroke="none" stroke-width=".265" aria-label="BLAKE3" font-family="sans-serif" font-size="10.583" font-style="normal" font-weight="normal" letter-spacing="0" word-spacing="0" style="line-height:1.25"><path id="path814" stroke-width=".265" d="m 28.176921,113.52518 q 0.635,0 1.0795,0.14817 0.455084,0.13758 0.740834,0.40216 0.296333,0.254 0.433916,0.61384 0.137584,0.35983 0.137584,0.79375 0,0.62441 -0.264584,1.00541 -0.254,0.381 -0.762,0.58209 0.508,0.21166 0.783167,0.61383 0.275167,0.39158 0.275167,1.016 0,0.43392 -0.137584,0.79375 -0.137583,0.35983 -0.433916,0.62442 -0.28575,0.254 -0.740834,0.40216 -0.4445,0.14817 -1.0795,0.14817 h -3.174999 q -0.592667,0 -0.592667,-0.58208 v -5.97959 q 0,-0.58208 0.592667,-0.58208 z m -2.508249,5.78908 q 0,0.11642 0.137583,0.11642 h 2.434166 q 0.5715,0 0.836084,-0.24342 0.264583,-0.24341 0.264583,-0.68791 0,-0.92075 -1.100667,-0.92075 h -2.571749 z m 0,-2.77283 h 2.539999 q 1.100667,0 1.100667,-0.85725 0,-0.42333 -0.264583,-0.67733 -0.254,-0.254 -0.8255,-0.254 h -2.413 q -0.137583,0 -0.137583,0.127 z" font-family="Nasalization" font-stretch="normal" font-style="normal" font-variant="normal" font-weight="normal" style="-inkscape-font-specification:Nasalization"/><path id="path816" stroke-width=".265" d="m 33.22517,113.52518 v 4.66725 q 0,0.254 0.0635,0.48683 0.07408,0.22225 0.243417,0.39159 0.169333,0.15875 0.4445,0.254 0.28575,0.0953 0.709083,0.0953 h 2.772833 v 1.24883 h -2.846916 q -0.709084,0 -1.217084,-0.17992 -0.497416,-0.1905 -0.814916,-0.51858 -0.3175,-0.32808 -0.465667,-0.77258 -0.137583,-0.45509 -0.137583,-0.99484 v -4.67783 z" font-family="Nasalization" font-stretch="normal" font-style="normal" font-variant="normal" font-weight="normal" style="-inkscape-font-specification:Nasalization"/><path id="path818" stroke-width=".265" d="M 39.342334,120.66893 H 37.9665 l 2.50825,-6.35 q 0.201084,-0.508 0.560917,-0.70908 0.370417,-0.21167 0.941917,-0.21167 0.560916,0 0.92075,0.21167 0.370416,0.20108 0.560916,0.70908 l 2.413,6.35 h -1.386416 l -2.169584,-5.74675 q -0.09525,-0.24342 -0.34925,-0.24342 -0.254,0 -0.359833,0.24342 z" font-family="Nasalization" font-stretch="normal" font-style="normal" font-variant="normal" font-weight="normal" style="-inkscape-font-specification:Nasalization"/><path id="path820" stroke-width=".265" d="m 48.179401,113.52518 v 3.02683 h 0.687917 q 0.455083,0 0.740833,-0.0212 0.296333,-0.0318 0.486833,-0.127 0.1905,-0.0953 0.3175,-0.26459 0.137584,-0.17991 0.28575,-0.47625 l 1.090084,-2.13783 h 1.344083 l -1.121833,2.2225 q -0.243417,0.47625 -0.518584,0.79375 -0.275166,0.3175 -0.719666,0.508 0.254,0.0635 0.4445,0.17992 0.1905,0.10583 0.34925,0.27516 0.169333,0.15875 0.3175,0.39159 0.148166,0.22225 0.306916,0.52916 l 1.153584,2.24367 h -1.397 l -1.090084,-2.11667 q -0.148166,-0.28575 -0.28575,-0.45508 -0.137583,-0.16933 -0.34925,-0.26458 -0.211666,-0.0952 -0.529166,-0.11642 -0.3175,-0.0317 -0.8255,-0.0317 h -0.687917 v 2.9845 h -1.248833 v -7.14375 z" font-family="Nasalization" font-stretch="normal" font-style="normal" font-variant="normal" font-weight="normal" style="-inkscape-font-specification:Nasalization"/><path id="path822" stroke-width=".265" d="m 60.127965,113.52518 v 1.24883 h -3.577166 q -0.5715,0 -0.8255,0.24342 -0.254,0.24342 -0.254,0.65617 0,0.84666 1.090083,0.84666 h 3.513667 v 1.13242 h -3.545417 q -1.090083,0 -1.090083,0.86783 0,0.42334 0.264583,0.66675 0.264583,0.23284 0.814917,0.23284 h 3.6195 v 1.24883 h -3.6195 q -0.635,0 -1.090083,-0.14817 -0.4445,-0.14816 -0.740834,-0.40216 -0.28575,-0.26459 -0.423333,-0.62442 -0.127,-0.35983 -0.127,-0.77258 0,-0.61384 0.264583,-1.016 0.264584,-0.41275 0.762,-0.62442 -1.005416,-0.41275 -1.005416,-1.60867 0,-0.42333 0.137583,-0.78316 0.137583,-0.35984 0.423333,-0.61384 0.296334,-0.26458 0.740834,-0.40216 0.455083,-0.14817 1.090083,-0.14817 z" font-family="Nasalization" font-stretch="normal" font-style="normal" font-variant="normal" font-weight="normal" style="-inkscape-font-specification:Nasalization"/><path id="path824" stroke-width=".265" d="m 65.091539,113.52518 q 0.635,0 1.0795,0.14817 0.455083,0.13758 0.740833,0.40216 0.296333,0.254 0.433917,0.60325 0.137583,0.34925 0.137583,0.762 0,0.635 -0.264583,1.03717 -0.254,0.39158 -0.751417,0.60325 0.508,0.21167 0.772583,0.62442 0.264584,0.40216 0.264584,1.04775 0,0.40216 -0.137584,0.75141 -0.137583,0.34925 -0.423333,0.61384 -0.28575,0.254 -0.740833,0.40216 -0.4445,0.14817 -1.0795,0.14817 h -3.608917 v -1.24883 h 3.608917 q 0.550333,0 0.814916,-0.23284 0.264584,-0.24341 0.264584,-0.67733 0,-0.85725 -1.090084,-0.85725 h -2.201333 v -1.13242 h 2.169583 q 0.550334,0 0.814917,-0.20108 0.275167,-0.21167 0.275167,-0.65617 0,-0.40216 -0.254,-0.64558 -0.254,-0.24342 -0.8255,-0.24342 h -3.566583 v -1.24883 z" font-family="Nasalization" font-stretch="normal" font-style="normal" font-variant="normal" font-weight="normal" style="-inkscape-font-specification:Nasalization"/></g></g></svg>